<?xml version="1.0" encoding="utf-8"?>
<!-- Generator: Adobe Illustrator 21.0.0, SVG Export Plug-In . SVG Version: 6.00 Build 0)  -->
<svg version="1.1" id="Warstwa_1" xmlns="http://www.w3.org/2000/svg" xmlns:xlink="http://www.w3.org/1999/xlink" x="0px" y="0px"
	 viewBox="0 0 1000 720" style="enable-background:new 0 0 1000 720;" xml:space="preserve">
<style type="text/css">
	.st0{fill:#FFFFFF;}
</style>
<polygon class="st0" points="572.2,320.1 549.3,319.9 536.5,290.2 517.4,290.2 517.4,237 525.9,237 525.9,209.4 494,196.6 
	494,132.8 542.9,132.9 555.6,120 502.5,120 502.5,107.3 481.2,96.7 481.2,15.8 477,15.8 472.7,15.8 472.7,96.7 451.4,107.3 
	451.4,120 398.3,120 409.1,132.9 460,132.8 460,196.6 428.1,209.4 428.1,237 436.6,237 436.6,290.2 417.4,290.2 368.5,262.5 
	361,273 413.2,302.9 404.7,319.9 334.5,279.5 326.5,290.8 379.1,324.2 370.6,339.1 300.5,298.7 293,309.6 364.3,354 355.8,368.8 
	477,317.8 598.2,368.8 "/>
<path class="st0" d="M362,453.4c14.8-1.6,26-7.8,36.6-15.8c10.7-7.9,20.6-10.5,28.6-11.6c8.1-1.2,25.7,0.4,27.1,7
	c1.4,6.6-4.3,8-4.3,8c0.2-3.7-2.7-4.3-4.6-4.4c-1.1-0.1-2.3,0.4-2.9,0.8c-0.4,0.2-0.7,0.4-0.9,0.7c-0.9,1.3-1.1,3.3-1.3,4.8
	c-0.1,0.8,0.1,1.5,0.5,2.2c7.4,12,36.4,10.1,36.4,10.1v0.2c9.3,0.1,9.5-0.5,24.3-2.1c14.8-1.6,26-7.8,36.6-15.8
	c10.7-7.9,20.6-10.5,28.6-11.6c8.1-1.2,25.7,0.4,27.1,7c1.4,6.6-4.3,8-4.3,8c0.2-3.7-2.7-4.3-4.6-4.4c-1.1-0.1-2.3,0.4-2.9,0.8
	c-0.4,0.2-0.7,0.4-0.9,0.7c-0.9,1.3-1.1,3.3-1.3,4.8c-0.1,0.8,0.1,1.5,0.5,2.2c6.3,10.2,28.2,10.4,34.6,10.2l34.4-51.6l-51-21.3
	l-121.2-51l-121.2,51l-51,21.3l34.5,51.7C347.1,455.5,348.1,454.9,362,453.4z"/>
<rect x="7" y="480.8" class="st0" width="986" height="21.9"/>
<g>
	<path class="st0" d="M81.2,546.6l23,23.1v47.4l-8.2,8.2l8.2,8v47.2l-23,23H7V546.6H81.2z M37,610.1h37.1v-33.4H37V610.1z M74.2,640
		H37v33.4h37.2V640z"/>
	<path class="st0" d="M145.3,703.4h-30l42.2-156.7h30l39.8,156.7h-29.9l-6.8-26.7h-38.1L145.3,703.4z M172.1,603.9l-11.5,42.8H183
		L172.1,603.9z"/>
	<path class="st0" d="M309.7,546.6v30h-29v126.7h-30V576.7h-28.9v-30H309.7z"/>
	<path class="st0" d="M414.4,546.6v30h-29v126.7h-30V576.7h-28.9v-30H414.4z"/>
	<path class="st0" d="M461.3,673.3h49.5v30h-79.5V546.6h30V673.3z"/>
	<path class="st0" d="M607.2,546.6v30h-49.6v33.4h39.7V640h-39.7v33.4h49.6v30h-79.6V546.6H607.2z"/>
	<path class="st0" d="M698.2,546.6l23,23.1v30.4h-29.9v-23.4H654v33.4h43.6l15.5,15.1l-0.1,0.1l8.2,8v47.2l-23,23H647l-23-23v-30.5
		h30v23.4h37.2V640h-44.8L624,617.1v-47.4l23-23.1H698.2z"/>
	<path class="st0" d="M801.4,546.6h30v156.7h-30V640H768v63.4h-30V546.6h30v63.4h33.4V546.6z"/>
	<path class="st0" d="M848.2,546.6h30v156.7h-30V546.6z"/>
	<path class="st0" d="M969.2,546.6l23,23.1v51.1l-23,23H925v59.6h-30V546.6H969.2z M962.1,576.7H925v37.2h37.1V576.7z"/>
</g>
</svg>
